<svg width="153" height="267" viewBox="0 0 153 267" fill="none" xmlns="http://www.w3.org/2000/svg">
<g clip-path="url(#clip0_1314_186)">
<path d="M101.508 245.827C101.608 245.649 102.101 244.984 102.291 244.684C102.221 245.105 101.145 246.47 101.508 245.827ZM103.424 207.381C103.396 207.669 103.368 207.958 103.338 208.247C103.611 207.494 103.881 206.455 104.14 205.769C104.183 205.656 104.254 206.012 104.342 205.742C104.429 205.471 104.196 205.447 104.288 205.043C104.394 204.588 105.12 202.616 105.302 201.919C105.98 199.357 106.541 196.539 107.228 193.916C106.777 196.721 107.596 193.99 107.685 193.201C107.7 193.028 107.267 192.926 107.931 190.227C108.342 188.506 108.692 190.306 108.914 187.276C108.02 189.469 108.488 187.209 108.771 185.422C108.825 185.111 109.294 182.65 109.422 181.565C109.468 181.192 109.293 180.583 109.35 180.094C109.39 179.757 109.563 179.526 109.618 179.027C109.872 176.745 110.114 174.314 110.344 171.985C110.913 173.443 110.721 170.935 110.756 170.831C110.985 170.288 110.843 172.837 111.036 171.844C111.127 170.433 111.196 169.034 111.243 167.645C111.102 168.781 110.733 166.079 110.972 165.585C110.379 165.756 111.637 159.186 111.371 158.196C111.318 157.982 111.05 159.363 111.106 156.181C111.111 155.833 111.306 155.963 111.282 155.781C111.268 155.67 110.635 155.022 110.939 154.317C111.045 154.061 111.544 155.678 111.183 152.104C110.666 153.523 110.495 147.248 110.482 146.032C110.423 146.274 110.363 146.515 110.303 146.757C110.41 145.578 110.168 145.39 110.151 145.129C110.078 144.078 110.109 142.621 109.951 141.658C109.765 140.531 109.373 140.581 109.318 139.255C109.281 139.577 109.243 139.899 109.204 140.22C109.085 139.313 108.961 138.429 108.821 137.506C109.704 139.533 108.77 137.046 108.724 136.881C108.656 136.615 108.94 136.966 108.831 136.521C108.818 136.475 108.631 136.575 108.479 135.889C108.158 134.458 108.451 134.64 108.328 134.037C108.315 133.983 108.176 134.208 107.917 133.181C107.072 129.927 108.064 133.166 108.111 133.291C108.175 133.454 108.71 132.162 109.002 135.039C108.903 134.074 109.216 133.916 109.203 133.807C109.193 133.71 108.803 132.078 108.769 131.992C108.481 131.212 108.407 131.966 108.332 131.818C108.274 131.698 108.127 129.672 107.329 129.377C107.734 128.299 108.04 129.776 108.486 131.33C108.669 131.532 108.404 129.776 108.379 129.686C107.845 127.455 107.619 128.811 107.169 128.403C106.932 128.188 107.058 127.197 106.803 128.146C106.242 126.144 106.821 127.298 106.829 127.158C106.837 126.947 106.52 126.277 106.514 126.185C106.505 126.049 106.786 126.457 106.707 125.932C106.692 125.845 106.196 125.1 106.347 126.189C106.008 124.769 105.8 124.952 106.142 124.346C104.973 123.629 106.473 123.497 106.413 123.101C106.251 122.049 105.633 122.547 105.583 122.504C105.264 122.201 104.645 119.352 104.309 118.692C104.903 118.8 105.024 120.903 105.247 121.298C106.015 122.642 104.871 119.19 105.827 120.043C105.514 119.652 105.2 119.264 104.883 118.879C105.023 117.94 105.584 119.026 104.707 116.902C104.24 116.664 105.277 118.419 104.875 118.131C104.641 117.959 104.182 116.717 104.088 116.722C103.978 116.732 104.482 117.823 104.264 117.697C103.807 117.417 102.68 113.207 103.965 116.266C103.696 115.509 104.046 114.89 103.824 114.292C103.791 114.202 103.745 114.113 103.682 114.025C103.564 113.861 103.502 114.189 103.399 114.445C103.311 114.665 103.194 114.831 102.991 114.593C102.796 114.366 102.526 113.77 102.105 112.506C102.388 112.298 102.81 114.102 102.847 114.138C102.905 114.188 103.503 113.614 103.518 113.546C103.579 113.308 101.581 109.264 101.55 108.245C101.298 108.758 100.154 105.144 99.8536 104.827C99.7758 104.742 99.6969 105.225 99.6237 105.13C99.1798 104.536 98.796 102.541 98.4092 101.701C97.981 100.765 97.8279 100.985 97.8039 100.933C97.6197 100.519 97.9166 100.776 97.7962 100.527C97.6203 100.148 96.3681 97.5624 96.2682 97.4521C96.2402 97.4194 96.2198 97.9576 95.8918 97.4244C95.8334 97.3332 96.1475 97.2448 95.1695 95.6682C93.9841 93.7713 95.5503 97.2215 94.8303 96.5553C94.578 95.0729 94.189 95.3298 94.0395 94.971C93.9879 94.8465 93.8553 93.7732 93.3048 92.8311C93.7385 93.4842 94.1679 94.1409 94.593 94.8011C94.2909 94.0879 93.4986 92.8177 93.2546 92.2262C93.1358 91.9373 93.5376 92.0002 93.1991 91.4173C93.1243 91.2949 92.1799 91.1912 93.34 92.5526C93.1675 92.8137 92.9174 91.9921 92.6581 91.6936C92.6183 91.6484 92.1057 91.681 92.1088 91.1051C92.1074 90.9682 93.9277 91.3977 91.4033 89.0029C91.322 88.9264 91.3677 89.337 91.2845 89.2644C91.2284 89.2144 90.8526 88.4439 90.7835 88.3757C90.7126 88.3063 90.7663 88.7569 90.6769 88.6771C90.2196 88.2704 90.4399 87.2219 91.0164 88.2949C90.8852 87.8983 90.7527 87.5025 90.6167 87.1043C90.3783 87.7696 90.1551 86.6374 89.8435 86.165C87.8415 83.1474 88.8248 85.4017 88.3425 84.9736C87.5646 84.2918 88.7524 84.4214 87.7195 83.3253C87.6211 83.2264 88.2726 84.9468 86.5506 81.8886C86.8467 82.3117 87.1411 82.7361 87.4336 83.1618C87.7091 82.6164 86.3856 81.6173 86.3131 81.5228C85.4933 80.4182 86.1694 81.085 84.8032 79.5419C84.6809 79.4046 84.5607 79.0005 84.2871 78.7155C83.1565 77.5332 85.3662 80.5747 85.2412 80.7842C85.1929 80.8801 82.9374 77.5332 82.888 77.3969C82.7251 76.7852 84.0111 78.8426 83.9643 78.3063C83.9604 78.0984 80.4589 73.5268 79.8235 72.5463C79.114 71.3991 79.2756 70.4876 78.6715 70.9665C79.0295 70.1882 78.4231 70.2485 78.3226 70.1094C77.1027 68.4242 77.1029 68.4173 75.9365 67.0727C75.6786 66.7763 75.641 66.3707 75.5242 66.2875C75.4558 66.2397 75.3679 66.515 75.062 66.2562C74.645 65.892 72.7033 63.1686 72.6351 62.8958C72.5735 62.6179 73.5842 63.9325 73.5549 63.5612C72.8 62.6287 72.0143 61.7912 71.2407 60.8658C70.9195 60.4812 71.1981 60.573 71.0581 60.4079C70.9997 60.336 69.7609 59.1291 69.769 59.2228C69.8015 59.4278 73.3479 63.4117 72.2346 62.5259C72.0222 62.3537 71.6544 61.3922 71.4427 61.7938C68.4212 58.1285 65.2363 54.5263 61.941 51.0307C64.0932 52.7988 66.0161 55.223 67.9761 57.3446C68.2453 57.6341 69.1096 58.6572 69.1525 58.3909C67.5528 56.5209 65.4014 54.3631 63.8643 52.5748C63.8151 52.5173 64.1336 52.585 63.9581 52.361C63.6325 51.9434 62.2182 50.9126 62.0668 50.6528C62.0438 50.6043 62.8974 51.1338 62.7919 50.8099C62.5183 49.9785 61.7917 50.466 61.3355 49.9897C60.9884 49.6161 58.8265 46.9052 58.0395 46.5099C57.2112 46.0809 59.7366 48.3863 59.4022 48.379C57.6111 46.92 56.0714 45.1069 54.443 43.6224C54.4144 43.5965 54.5492 43.9557 54.176 43.6383C53.5265 43.0865 53.5168 42.7521 53.2365 42.441C52.9342 42.1048 51.7456 41.0645 51.6432 40.8575C51.6303 40.8307 52.0166 40.8653 52.057 40.8929C52.6295 41.2813 52.6148 41.6819 52.6584 41.7271C52.8246 41.8952 53.0707 41.9618 53.2247 42.1128C53.4781 42.3617 53.5513 42.5773 53.8881 42.903C54.1202 43.1282 54.0278 42.7557 54.2499 42.9749C54.3325 43.0551 54.9179 44.2653 55.324 43.9701C55.4879 43.8409 48.1015 36.926 47.2179 36.3933C47.8419 37.0021 48.4634 37.6156 49.0822 38.2337C47.8378 36.9593 46.0068 35.88 46.2234 35.3548C41.256 31.089 36.0794 26.9808 30.8068 23.1005C29.8654 22.3712 30.5524 22.4997 28.9191 21.4427C29.2797 21.8115 29.6393 22.1829 29.9977 22.5569C29.2221 21.9027 25.6918 19.2763 25.0829 18.9389C24.9986 18.8909 24.7872 19.0454 23.8492 18.4301C23.0237 17.8896 22.9863 17.6449 22.5673 17.3218C22.2152 17.0512 21.7802 16.8182 21.6766 16.7374C21.5973 16.6751 21.6196 16.5583 21.4285 16.4092C20.8243 15.9405 21.1847 16.543 20.7316 15.8263C20.8914 15.915 21.0513 16.0039 21.2113 16.093C20.472 15.5449 19.5035 14.7347 20.6711 15.3968C20.8721 15.511 20.6532 15.4934 20.798 15.5873C26.4942 19.3176 22.0507 16.1192 19.9837 14.9887C19.5628 14.5279 16.6133 12.7822 16.5187 12.6955C16.4024 12.5753 16.9628 12.7834 16.3496 12.2893C16.2148 12.1718 12.2623 9.89081 13.7583 10.5727C14.0659 10.7086 15.9316 11.8781 16.3917 12.1557C15.4588 11.2277 12.7569 10.123 12.4887 9.95016C11.3806 9.24724 14.7754 11.0023 12.245 9.48028C10.2614 8.30362 12.0572 9.56001 11.2453 9.18316C10.7852 8.96189 8.59412 7.48647 8.54374 7.75564C7.75404 7.34061 8.26887 7.477 8.17719 7.41402C8.08553 7.35203 6.5283 6.56887 6.06069 6.25466C6.00373 6.21617 6.24686 6.20448 6.18963 6.16125C6.08388 6.08112 4.58559 5.30076 4.509 5.27379C4.467 5.25928 4.78449 5.55212 4.62385 5.49568C4.43551 5.42689 2.98708 4.6265 2.89582 4.6136C2.76202 4.59175 4.57501 5.52611 4.22443 5.47568C3.40456 4.99778 2.02869 4.35792 1.45311 4.15768C1.59563 4.20301 2.39235 4.62053 2.66602 4.77798C2.46192 4.86082 0.763517 3.95301 1.3987 4.14222C1.00039 4.01164 1.23718 4.1788 1.00249 4.12939C0.941088 4.1156 0.417674 3.8427 0.306174 3.81582C0.290818 3.81364 0.803291 4.15497 0.682044 4.12849C0.460515 4.07691 -1.10297 3.23536 -1.22291 3.1578C-1.56626 2.93034 -0.270006 3.54875 -0.133766 3.54409C-0.114667 3.54062 -1.1517 2.85481 -1.16323 2.83784C-1.17894 2.69105 0.00041242 3.39836 -0.0924814 3.22404C-0.384561 3.04661 -0.675988 2.87088 -0.966993 2.69674C0.233023 3.1752 2.38785 4.36542 3.01522 4.54268C1.23409 3.64951 -0.566387 2.72969 -0.447659 2.4682C-0.398385 2.35675 0.381632 2.66329 0.365817 2.62021C0.299311 2.46066 -0.791588 2.05957 -0.826126 2.03609C-0.855029 2.01448 -0.866781 2.00148 -0.864296 1.99565C-0.864296 1.99565 -0.864296 1.99565 -0.864296 1.99565C-0.864295 1.99565 -0.864293 1.99564 -0.864292 1.99564C-0.864292 1.99564 -0.864292 1.99564 -0.864292 1.99564C-0.840698 1.93493 0.666027 2.62253 0.755217 2.63388C0.903343 2.64578 0.326251 2.11653 0.346608 2.07375C0.372722 2.07517 1.46559 2.5476 1.13904 2.29306C0.807062 2.03465 -0.12867 1.5879 -0.157192 1.56508C-0.317352 1.4325 1.34257 2.1701 1.4067 2.16802C1.43886 2.16508 0.591985 1.65686 0.577405 1.62128C0.566029 1.58584 1.26278 1.8487 1.56578 1.89524C1.79128 1.92944 1.23202 1.61181 1.33798 1.65056C1.41179 1.67578 2.98655 2.42154 3.07106 2.45073C3.19425 2.49009 2.85643 2.24067 2.91864 2.24836C3.00687 2.25818 3.50753 2.52844 3.45322 2.46969C3.41145 2.41913 1.54132 1.24687 1.58352 1.19424C1.65343 1.09166 3.64427 2.30988 1.88276 0.97674C1.87015 0.967531 1.3805 0.785616 1.36865 0.777207C1.11018 0.568112 2.69067 1.11724 0.815888 0.317554C4.35704 1.71482 1.32094 0.338535 1.91819 0.380861C2.14817 0.394105 3.5273 0.961757 3.53999 0.95524C3.44908 0.802672 2.98011 0.683903 2.85281 0.574165C2.78135 0.512573 4.05377 0.950372 3.80712 0.765102C3.6777 0.667308 2.37008 0.118505 2.32057 0.0911241C1.83373 -0.186198 2.49171 0.0169401 2.39789 -0.0732059C2.33499 -0.134007 1.55301 -0.463444 1.53531 -0.476245C1.50596 -0.50087 2.62035 -0.170927 2.86314 -0.117055C3.04667 -0.077546 2.43201 -0.391729 2.55631 -0.355728C3.30424 -0.143497 4.73927 0.712496 3.40031 -0.20033C3.31835 -0.256008 2.75994 -0.478026 2.74543 -0.487971C2.43892 -0.71073 3.46419 -0.298261 3.67985 -0.289391C4.04867 -0.277721 2.54129 -0.817139 3.80776 -0.396447C2.91942 -0.850791 2.40394 -1.05251 1.32774 -1.45207C4.31425 -0.329626 5.53199 -0.207167 2.19821 -1.51352C3.24968 -1.09735 3.21047 -1.30975 3.52812 -1.18917C3.72488 -1.11662 5.19508 -0.324155 4.66088 -0.994965C4.59268 -1.07952 3.62389 -1.38616 3.96273 -1.36871C6.21703 -0.456124 4.03805 -1.41518 4.04222 -1.42604C4.16657 -1.66561 9.66337 0.760934 10.5671 1.14134C11.6684 1.57049 12.7456 1.7941 12.9853 1.89737C13.7722 2.24078 13.0668 2.05929 13.2234 2.17433C13.3803 2.28745 15.7284 3.08914 15.811 3.14053C16.2077 3.37575 15.7148 3.31028 15.7553 3.33635C16.2299 3.64235 19.2088 4.90578 20.0212 5.34268C20.0429 5.24077 18.3913 4.44939 19.4998 4.80059C20.7951 5.20976 20.6548 5.63281 20.6764 5.66455C26.1416 8.31272 31.4891 11.1697 36.7884 14.2777C36.8757 13.9895 33.2825 12.1732 33.2257 12.1076C32.8713 11.6439 38.7582 15.0277 39.3696 15.546C38.8688 15.1716 38.3672 14.8009 37.8649 14.4339C38.9638 14.6907 40.7536 16.2673 42.1625 16.9662C42.6191 17.1899 41.8704 16.5725 41.8923 16.5761C42.4502 16.7606 43.1664 17.3255 42.4858 17.1161C43.7605 17.7036 43.4806 17.755 44.3741 18.3364C44.4204 18.3664 44.1134 18.0045 44.8622 18.4086C45.2095 18.5927 46.9571 19.7132 47.2661 19.7649C47.395 19.7827 46.8295 18.7535 46.4403 19.0768C44.6663 17.672 45.7054 18.8664 44.9712 18.3874C44.8568 18.3141 45.2754 18.256 43.2986 17.1728C43.9325 17.0066 45.9214 18.6698 46.3119 18.8558C47.1509 19.2407 44.1293 17.0455 43.3204 16.9877C43.8035 16.8547 43.1207 16.8055 42.4155 16.3577C41.643 15.8691 42.0442 15.987 41.6211 15.7311C40.4642 15.0349 40.8047 15.531 39.9766 14.7767C40.5155 15.9091 38.3009 13.8876 37.6437 13.3161C38.8823 13.9859 40.1156 14.6659 41.3545 15.364C41.3057 15.2916 41.2567 15.2192 41.2078 15.1469C41.5259 15.3422 41.8442 15.5387 42.1623 15.7362C42.0907 15.735 42.0191 15.7337 41.9476 15.7325C43.7348 16.5362 43.9899 17.0113 44.1222 17.0959C45.8584 18.2053 47.7856 19.4273 49.5086 20.5622C49.765 20.7338 49.7391 20.4051 51.4961 21.8175C52.0555 22.2707 51.3735 22.0485 52.0671 22.483C53.2386 22.6264 52.9605 22.9596 53.2069 23.1298C53.915 23.616 54.4302 23.8099 54.4967 23.854C55.3849 24.444 56.6501 25.3661 57.6196 26.0407C57.639 26.0519 57.2477 25.5577 57.8382 26.0456C58.0438 26.2106 59.5509 28.2313 61.3612 29.3028C60.959 28.9333 60.5598 28.5694 60.151 28.201C60.6262 28.6294 64.3189 31.223 63.5791 30.396C63.1232 29.8842 61.4981 29.2649 61.6537 28.7943C62.7712 29.7573 69.4533 34.8101 69.8377 35.3293C69.8954 35.3987 69.3645 35.1663 69.4458 35.2607C69.5095 35.3315 70.9939 36.528 71.1436 36.7404C71.2333 36.8651 70.524 36.3935 70.5368 36.4812C70.5563 36.5476 72.3158 38.1494 72.5577 38.0915C72.0596 37.7659 70.8583 36.645 71.6307 37.0788C71.7298 37.135 72.0769 37.607 72.1974 37.6754C73.3196 38.3069 70.4359 35.9134 69.9906 35.5505C71.9628 36.8522 74.5266 39.4845 76.6495 41.1893C77.3406 42.0542 75.2565 40.2861 76.0761 41.2252C77.7683 43.1799 76.7533 41.5144 76.8274 41.5522C77.43 41.8555 78.3544 44.0241 78.8695 43.5124C79.4751 44.2347 79.1888 44.0887 80.2166 44.9389C80.127 44.7824 80.037 44.626 79.9468 44.4699C81.3292 45.1855 82.7679 48.1318 82.533 48.0234C81.9335 47.734 81.0285 46.3573 80.921 46.2666C80.762 46.1332 79.8311 46.2496 78.6841 44.2402C77.6724 43.9538 81.0006 46.9348 79.2966 45.763C80.3454 46.6664 84.0334 50.9014 84.7466 51.3537C84.8348 51.4045 84.904 50.7311 85.6714 51.9189C86.034 52.4834 84.9316 51.3275 85.0533 51.6262C85.504 52.473 94.0679 61.8202 95.505 63.7831C95.6031 63.9052 95.4353 63.9616 95.5322 64.081C95.8305 64.4463 97.0942 65.6533 97.5477 66.3746C96.7235 64.7954 98.8295 67.4885 99.3166 68.2141C100.064 69.3069 99.7699 69.415 100.055 69.9124C101.147 71.8159 103.679 74.2249 104.06 76.0213C104.571 75.5801 105.414 78.6742 106.128 79.8478C106.698 80.7671 107.9 81.8897 107.364 80.4975C108.324 82.1134 109.442 83.7585 110.353 85.281C110.504 85.5325 110.131 85.2785 110.393 85.7046C110.417 85.7427 110.62 85.7022 110.848 86.0674C112.713 89.0835 111.506 87.7746 111.717 88.4115C111.832 88.7688 111.93 89.0252 112.014 89.207C111.018 87.4092 109.779 85.3798 109.456 84.8332C109.361 85.5082 111.758 88.7677 112.191 89.8719C112.206 89.9099 111.928 89.8943 111.945 89.9316C111.946 89.9324 111.946 89.9332 111.947 89.934C112.141 90.3273 113.495 92.7894 113.488 92.1481C113.486 91.9754 112.903 90.8167 112.161 89.4736C112.403 89.816 112.496 89.4186 112.54 89.4781C113.077 90.2025 113.839 92.2663 114.148 92.9777C114.22 93.1399 114.369 93.0531 114.382 93.079C114.659 93.7299 114.089 93.6824 114.863 94.1141C114.871 95.5265 113.727 92.0034 113.479 92.4149C113.343 92.7071 116.923 99.9851 117.314 99.7992C117.278 99.8455 117.264 99.9737 117.287 100.213C117.344 100.743 118.266 102.816 118.493 103.149C118.534 103.204 118.96 103.003 118.995 103.078C119.089 103.265 119.768 105.99 120.381 106.861C120.247 106.314 120.11 105.767 119.97 105.221C121.176 108.38 121.107 107.854 120.851 106.742C120.833 106.688 120.83 106.631 120.813 106.579C120.605 105.722 120.293 104.642 120.32 104.609C120.388 104.544 121.208 106.487 121.629 107.845C121.903 108.721 122.022 109.342 121.715 108.987C121.668 108.932 121.506 108.406 121.348 107.947C121.144 107.358 120.951 106.879 121.042 107.635C121.049 107.693 121.095 107.834 121.16 108.015C121.36 108.562 121.728 109.477 121.725 109.549C121.715 109.918 121.214 108.948 120.749 108.164C120.402 107.579 120.078 107.096 120.015 107.326C120.229 107.587 120.398 107.9 120.544 108.238C120.811 108.853 121.005 109.549 121.272 110.165C121.46 110.599 121.72 110.633 121.744 110.687C122.082 111.495 121.69 111.11 121.789 111.384C121.845 111.528 122.881 113.004 122.089 112.919C124.278 118.175 123.111 114.244 121.957 110.95C122.563 111.905 123.104 114.012 123.441 114.921C123.562 115.246 123.735 114.978 123.949 115.525C124.419 116.638 125.648 122.298 125.896 123.799C125.601 122.914 125.409 123.241 125.589 123.933C125.769 124.627 125.974 123.96 126.042 124.087C126.126 124.238 126.67 127.514 126.812 128.056C126.184 125.623 126.048 126.235 126.443 128.323C126.31 128.036 126.175 127.751 126.04 127.466C126.401 128.661 126.486 131.316 126.719 132.008C126.756 132.117 126.902 131.676 126.924 131.737C127.128 132.345 127.247 134.523 127.332 134.612C127.406 134.686 127.446 133.742 127.587 134.067C127.616 134.132 127.464 135.076 127.654 135.915C127.725 136.229 127.901 136.007 127.924 136.086C128.113 136.741 127.72 136.395 127.933 137.612C128.087 138.504 128.504 139.133 128.526 140.4C128.486 136.241 128.719 139.706 129.012 141.424C129.057 141.699 129.41 141.42 129.375 143.103C128.391 139.638 129.124 144.14 129.167 145.081C129.168 145.133 128.928 145.171 128.955 145.629C128.958 145.667 129.118 145.598 129.158 146.024C129.499 149.979 129.171 147.458 129.051 148.221C129.001 148.544 129.306 150.466 129.321 150.992C129.325 151.112 129.156 151.064 129.173 151.529C129.205 152.353 129.393 153.089 129.411 153.636C129.412 153.7 129.15 153.708 129.237 154.744C129.261 155.036 129.354 155.363 129.431 154.947C129.69 153.56 129.212 150.974 129.399 149.427C129.582 148.007 129.748 152.445 129.735 152.684C129.737 152.769 129.592 151.902 129.579 152.788C129.569 153.543 130.032 154.922 129.919 156.062C129.911 156.149 129.512 157.06 129.49 157.017C129.476 156.979 129.408 155.587 129.293 155.791C129.281 155.815 129.274 156.698 129.188 156.814C129.085 156.958 128.087 157.332 128.059 157.512C127.989 157.981 128.221 157.677 128.199 157.98C128.156 158.63 127.785 160.887 128.118 160.971C128.155 160.596 128.19 160.222 128.223 159.848C128.177 161.934 128.354 161.05 128.406 161.348C128.459 161.669 128.166 161.57 128.102 162.275C128.095 162.426 127.965 165.393 128.086 165.348C128.007 163.694 128.327 164.323 128.34 164.247C128.383 163.96 128.201 163.583 128.228 163.198C128.411 160.493 128.587 163.234 128.706 162.598C128.747 162.379 128.594 161.934 128.607 161.841C128.652 161.539 128.883 161.541 128.874 161.338C128.853 160.864 128.499 161.406 128.484 161.368C128.301 160.942 128.619 159.301 128.937 160.334C129.091 159.72 128.657 159.64 128.847 159.155C129.222 158.19 129.09 159.642 129.13 160.039C129.276 161.462 129.095 161.879 129.022 163.902C128.994 164.631 129.136 165.508 129.119 165.849C129.112 166.065 128.213 168.035 129.327 168.18C129.141 168.962 128.276 170.083 128.218 170.877C128.165 171.588 128.584 171.401 128.592 171.468C128.604 171.572 128.466 172.429 128.482 172.726C128.502 173.075 128.675 172.92 128.662 173.469C128.625 174.839 128.229 174.758 128.184 174.894C127.648 176.472 128.312 175.836 128.303 176.2C128.31 176.537 127.282 181.223 127.216 182.159C127.217 181.755 127.215 181.353 127.212 180.951C126.84 181.608 127.084 182.413 126.652 182.354C127.318 182.612 126.559 183.977 126.483 184.413C126.454 184.586 126.573 184.594 126.532 184.809C126.374 185.65 125.847 187.525 125.793 187.993C125.573 190.021 127.19 185.053 127.282 184.661C127.123 185.449 126.187 189.997 127.011 187.987C127.139 187.675 126.971 187.045 127.001 186.863C127.204 185.63 127.255 186.641 127.303 186.55C127.384 186.396 127.302 185.543 127.38 185.338C127.405 185.27 127.554 185.77 127.815 184.61C127.941 185.224 126.978 188.461 126.918 188.904C126.896 189.062 127.655 188.205 126.44 190.915C126.495 190.893 126.55 190.871 126.605 190.848C126.204 192.455 125.811 193.917 125.379 195.445C125.324 195.254 125.364 194.355 125.094 195.433C124.938 196.055 125.303 195.659 125.294 195.716C125.28 196.258 121.894 206.154 121.16 207.863C120.932 208.487 120.408 210.285 120.354 210.419C120.057 211.219 118.767 213.998 118.539 214.57C118.401 214.927 118.714 214.655 118.569 214.967C118.434 215.256 118.404 214.892 118.36 214.977C117.982 215.759 115.804 220.987 115.019 222.181C115.451 221.439 116.91 217.545 116.75 217.579C116.727 217.589 116.19 218.456 116.16 218.668C115.883 218.926 115.789 220.162 115.428 220.713C115.387 220.776 115.287 220.422 114.747 221.446C114.561 221.799 114.277 222.813 113.613 223.677C113.048 225.134 109.004 232.066 108.937 232.589C108.94 232.608 109.559 231.676 109.278 232.373C108.901 233.299 108.954 232.327 108.347 233.324C108.262 233.474 106.663 236.318 106.623 236.423C106.324 237.386 107.871 234.959 107.871 235.007C107.887 235.124 106.707 237.195 106.638 237.271C106.577 237.343 107.303 235.527 106.203 237.593C106.375 237.379 106.546 237.166 106.716 236.952C106.212 237.931 105.967 237.924 105.818 238.147C105.352 238.842 105.154 239.762 104.102 240.724C103.824 240.978 104.037 240.421 104 240.452C103.653 240.755 103.69 241.381 103.128 241.764C103.085 241.794 103.706 240.511 102.374 242.617C102.488 242.484 102.603 242.351 102.717 242.219C102.584 242.543 101.237 244.693 101.033 244.974C100.449 245.794 100.776 244.974 100.24 245.829C100.811 245.407 99.1222 247.99 99.0437 247.74C99.0234 248.227 97.3618 250.312 96.6338 251.339C96.1795 251.986 95.3221 253.366 95.1637 253.564C94.9798 253.793 94.8988 253.638 94.5597 254.048C94.4647 254.165 93.6316 255.5 92.6681 256.538C92.4815 256.739 91.9336 257.061 92.1791 256.622C92.5983 255.869 93.7198 254.67 93.5772 254.605C93.4262 254.536 92.2329 256.356 91.862 256.821C90.1632 258.969 90.9616 257.61 90.8778 257.638C90.6697 257.719 89.7866 258.927 89.7391 258.972C89.5463 259.155 90.0981 258.248 90.0454 258.194C89.9774 258.126 88.9859 259.2 89.1533 258.917C89.3935 258.512 90.2867 257.518 90.3296 257.447C90.8857 256.511 89.8304 257.602 89.5015 257.879C89.4015 257.962 89.6444 257.527 89.5762 257.606C88.5363 258.813 89.6402 258.046 88.9975 258.885C88.4218 259.633 89.0165 258.573 88.9877 258.598C88.9542 258.631 88.2876 259.54 88.1423 259.656C88.0785 259.714 89.5453 257.183 89.3613 257.212C88.8534 257.987 88.3379 258.763 87.8146 259.538C87.642 259.51 88.5175 258.48 88.5831 258.358C88.7162 258.112 88.1994 258.702 88.1766 258.647C88.161 258.615 88.5879 257.804 88.0756 258.453C87.8997 258.676 87.65 259.224 86.9554 260.009C88.9124 256.982 87.3976 258.973 87.2939 259.03C87.1891 259.085 88.0564 257.6 86.8884 259.326C86.5837 259.231 86.8347 259.235 87.126 258.718C87.4789 258.085 86.455 259.407 88.004 257.269C87.7984 257.311 86.6135 259.073 86.5372 259.16C86.4737 259.234 86.6828 258.804 86.5677 258.93C85.212 260.429 86.091 259.364 85.6206 259.746C85.5797 259.78 84.4569 261.312 85.2509 260.105C86.6862 257.904 87.4494 257.118 87.3131 256.506C86.1115 258.003 85.035 260.113 84.6999 260.605C84.1948 261.359 84.6542 260.534 84.5714 260.613C84.5437 260.64 84.1097 261.292 84.098 261.297C83.5329 261.582 86.0393 258.41 86.6709 257.336C86.4446 257.588 86.2182 257.842 85.9919 258.095C86.2411 257.712 86.4888 257.33 86.7349 256.947C85.4643 258.709 86.6661 256.991 86.7224 256.384C86.7353 256.248 86.0606 257.503 86.7868 256.043C86.1119 257.027 86.2716 256.676 85.7486 257.631C85.678 257.548 86.8813 255.424 87.3276 254.584C85.4359 257.375 86.8018 255.965 85.0394 258.328C84.8518 258.862 85.5951 257.663 85.5505 257.772C85.3922 258.162 84.7699 258.906 84.3425 260.037C84.272 260.221 84.8337 259.622 84.1614 260.617C84.0867 260.727 83.5667 261.301 83.566 261.288C83.551 261.153 83.9986 260.54 83.985 260.493C83.9726 260.449 83.5215 261.166 83.5115 261.163C83.407 261.122 83.8677 260.55 83.7803 260.62C83.5885 260.767 81.7247 263.178 83.96 259.898C82.2527 262.724 83.8379 260.318 84.4906 259.221C84.6575 258.942 84.6456 258.834 84.8757 258.432C85.1712 257.915 85.571 257.349 85.7239 257.084C85.886 256.798 84.7542 258.283 86.2306 256.029C85.3686 257.095 84.204 259.251 83.3618 260.339C81.6777 262.538 84.1866 258.566 84.4108 258.146C84.4743 258.034 84.1669 258.347 84.208 258.272C84.2791 258.146 85.7009 255.942 85.7628 255.68C85.8295 255.416 85.2662 256.497 85.1535 256.52C85.085 256.535 86.6241 253.794 85.7131 255.226C85.0918 256.213 84.1258 258.19 83.7355 258.374C84.6406 256.879 85.5215 255.39 86.3785 253.908C85.8189 254.66 85.2569 255.417 84.6924 256.177C85.6657 254.497 86.6011 253.128 87.381 251.487C84.943 255.082 87.8716 250.125 87.8516 250.053C87.8417 250.021 86.786 251.361 86.611 251.576C87.2563 250.251 89.4732 246.055 87.857 248.323C88.1662 247.916 88.5822 246.738 88.5607 246.744C88.3638 246.798 87.1722 249.219 87.2722 248.751C87.3742 248.234 87.8944 247.711 88.2434 247.02C90.0126 243.468 88.8063 244 90.6321 240.58C90.5718 240.634 90.5116 240.688 90.4515 240.742C92.3074 237.022 94.1221 233.201 95.8413 229.338C96.2439 227.668 97.6457 223.677 98.4484 221.659C98.6152 221.251 99.5271 219.323 99.6086 219.186C99.7675 218.93 99.2116 220.474 99.5723 219.825C99.6573 219.683 100.959 216.35 100.689 216.519C100.537 216.884 100.196 218.1 100.083 218.276C99.3742 219.449 103.109 209.409 103.119 208.711C102.984 208.922 102.85 209.134 102.715 209.345C102.955 208.688 103.192 208.034 103.424 207.381ZM102.759 243.151C102.658 243.591 101.96 244.449 101.638 245.011C101.2 245.787 100.83 247.342 100.707 246.51C101.407 245.39 102.091 244.27 102.759 243.151ZM112.828 226.372C112.314 227.144 112.281 226.35 112.773 225.753C112.828 225.687 113.52 225.328 112.828 226.372ZM108.133 234.52C108.148 234.485 108.543 233.821 108.561 233.8C109.042 233.267 107.847 235.269 108.133 234.52ZM125.805 192.377C125.563 193.335 126.189 192.754 126.174 192.106C126.173 192.066 125.821 192.316 125.805 192.377ZM125.606 193.054C125.014 193.701 125.363 195.39 125.628 194.18C125.655 194.062 125.635 193.023 125.606 193.054ZM111.16 229.188C111.092 229.062 111.594 228.249 111.81 227.902C111.909 227.953 111.321 228.868 111.16 229.188ZM121.052 207.643C120.967 207.57 119.789 210.59 119.833 210.845C119.976 210.347 121.14 207.708 121.052 207.643ZM123.698 199.685C123.654 199.758 123.327 200.85 123.435 200.847C123.742 200.354 123.903 199.351 123.698 199.685ZM128.035 183.505C128.019 183.441 127.158 184.146 128.015 182.266C128.141 181.989 128.114 183.048 128.16 182.951C128.252 182.744 128.31 182.579 128.342 182.443C128.214 183.367 128.035 184.324 127.973 184.409C127.682 184.805 128.042 183.534 128.035 183.505ZM129.061 174.714C128.973 174.507 129.209 173.286 129.294 173.012C129.309 172.965 129.592 173.207 129.643 172.652C129.682 172.206 129.277 172.835 129.439 171.977C129.601 171.111 129.682 172.298 129.707 172.224C129.743 172.123 129.766 170.76 129.946 170.82C130.082 170.863 129.809 172.302 129.788 172.664C129.764 173.127 130.068 172.594 129.914 173.358C129.816 173.838 129.452 173.526 129.418 173.625C129.393 173.708 129.376 175.424 129.063 174.711C129.062 174.712 129.062 174.713 129.061 174.714ZM128.375 182.193C128.374 182.264 128.364 182.346 128.342 182.443C128.353 182.359 128.364 182.276 128.375 182.193ZM104.022 240.961C104.341 240.605 103.697 241.822 103.334 242.192C103.259 242.155 103.96 241.041 104.022 240.961ZM128.226 181.295C128.582 179.959 128.532 180.973 128.375 182.193C128.379 181.798 128.105 181.745 128.226 181.295ZM116.16 218.668C116.206 218.626 116.256 218.607 116.315 218.626C116.19 218.736 116.15 218.735 116.16 218.668ZM117.572 215.816C117.845 214.714 116.928 216.823 117.069 216.83C117.117 216.854 117.56 215.863 117.572 215.816ZM126.165 191.114C126.118 191.21 125.88 189.506 125.769 191.878C126.167 190.687 125.898 191.978 125.959 191.973C126.138 191.96 126.516 189.893 126.695 189.461C126.49 189.046 126.325 190.797 126.166 191.112C126.166 191.113 126.166 191.114 126.165 191.114ZM130.666 158.817C130.852 159.099 130.756 159.989 130.716 160.591C130.535 160.305 130.635 159.416 130.666 158.817ZM58.4737 26.4431C61.8276 28.7151 61.8172 29.5411 59.02 27.1428C58.9656 27.0951 58.2355 26.3499 58.4737 26.4431ZM84.5932 49.1112C84.6188 49.6063 83.6989 48.7398 83.2126 48.0627C83.1031 47.9093 82.8521 47.1936 83.4595 47.7085C83.1551 47.961 83.9045 48.9311 84.5932 49.1112ZM128.167 180.499C128.028 180.08 128.408 178.834 128.552 178.182C128.663 178.606 128.342 179.946 128.167 180.499ZM68.6982 34.7986C69.0085 35.0846 69.4034 35.0721 69.3619 35.0091C69.1766 34.7254 68.4257 34.3813 68.6982 34.7986ZM127.344 184.41C127.209 184.442 127.424 182.814 127.758 182.755C127.667 183.095 127.432 184.385 127.344 184.41ZM130.521 159.947C130.441 160.202 130.368 158.867 130.447 158.466C130.595 158.499 130.574 159.778 130.521 159.947ZM73.9591 39.1696C74.23 39.4388 74.9385 40.0797 75.0934 40.0716C75.2871 40.0594 74.2058 39.1612 73.9591 39.1696ZM14.7578 1.96021C14.7331 1.92026 16.156 2.31689 16.7096 2.61684C17.7656 3.19023 14.8266 2.00893 14.7578 1.96021ZM65.489 32.3681C64.709 31.4383 65.5976 32.4441 65.7243 32.2174C65.0984 31.7056 63.5278 30.4644 64.4499 31.5034C64.6294 31.7057 65.2057 32.121 65.489 32.3681ZM66.2965 33.1249C66.4513 33.1423 67.3003 33.4876 66.7042 33.0315C66.4279 32.8212 65.8015 32.6934 66.2965 33.1249ZM22.9747 5.63452C23.8775 6.23143 19.4703 4.04069 19.3602 3.97916C19.2993 3.93647 19.2614 3.90524 19.2414 3.88434C19.0569 3.84955 18.2202 3.47686 18.1774 3.33363C18.4226 3.45395 19.1105 3.75575 19.184 3.80373C19.2157 3.82419 19.2388 3.84039 19.2539 3.85304C19.5902 3.88704 22.8175 5.51801 22.9747 5.63452ZM30.0895 9.40659C28.8747 9.03969 28.8948 8.58869 28.9948 8.62566C30.2694 9.09868 29.3379 8.95741 29.3672 8.98821C29.4375 9.05153 30.3543 9.37386 30.0861 9.40478C30.0872 9.40537 30.0884 9.40597 30.0895 9.40659ZM24.4111 6.40155C24.3641 6.3834 23.4643 5.9319 23.4302 5.90942C22.7504 5.43625 25.3002 6.71164 24.4111 6.40155ZM129.416 168.095C129.555 167.335 129.723 168.105 129.585 168.603C129.572 168.64 129.292 168.767 129.416 168.095ZM66.7941 33.4536C66.9183 33.5906 70.1658 36.4819 70.1817 36.0807C69.8829 35.8589 66.144 32.5894 66.7941 33.4536ZM90.5003 56.1277C89.985 55.5445 90.8108 55.9569 90.9888 56.3512C91.0546 56.4973 90.6301 56.2745 90.5003 56.1277ZM126.572 186.53C126.56 187.361 126.019 187.081 126.376 186.431C126.39 186.405 126.572 186.498 126.572 186.53ZM86.4388 51.4167C88.4335 53.2415 87.2054 53.4701 85.0733 50.7114C85.1837 50.7582 85.294 50.8049 85.4044 50.8519C82.7269 47.8598 85.2732 50.5969 85.9943 51.2751C86.2694 51.5314 86.1848 51.1848 86.438 51.4139C86.4383 51.4148 86.4386 51.4157 86.4388 51.4167ZM93.1717 59.2374C94.2371 61.7069 91.4453 57.6057 90.4193 56.624C91.569 57.4461 92.707 58.8328 91.358 56.7879C93.7465 59.4343 92.5284 58.5167 92.6042 58.6379C92.6913 58.7838 93.1262 59.1319 93.1717 59.2374ZM88.659 54.1222C88.5426 54.0265 87.8944 53.0929 87.5978 52.813C88.1833 53.0559 89.4431 54.7552 88.659 54.1222ZM37.558 13.3866C37.3995 13.4604 37.1434 13.4315 36.4074 12.95C36.6819 13.0249 37.2043 13.2534 37.558 13.3866ZM101.727 243.517C101.401 244.01 100.717 244.976 101.028 244.738C101.061 244.71 101.793 243.555 101.727 243.517ZM76.3294 41.8626C76.4114 41.9607 78.8448 44.2545 78.1519 43.3142C77.9457 43.0246 75.6861 40.9883 76.3294 41.8626ZM63.131 30.7077C63.3498 30.8787 64.2631 31.5507 64.3093 31.5341C64.4648 31.4693 63.3164 30.6749 63.131 30.7077ZM99.986 245.963C99.9342 246.022 98.9433 247.555 99.1034 247.417C99.4135 247.155 100.174 245.76 99.986 245.963ZM129.175 165.296C129.179 165.136 129.421 164.938 129.427 164.883C129.448 164.752 129.543 161.844 129.765 162.965C129.817 163.149 129.383 167.343 129.285 167.893C128.96 168.082 129.418 166.304 129.418 165.865C129.419 165.788 129.165 165.724 129.176 165.297C129.176 165.297 129.175 165.296 129.175 165.296ZM33.4935 11.2683C33.314 11.3121 30.394 9.82433 30.5071 9.71921C31.5001 10.2253 32.4957 10.7416 33.4935 11.2683ZM34.9495 12.1014C35.516 12.5263 34.0563 11.7415 33.6533 11.4742C33.6948 11.3965 34.8668 12.0383 34.9495 12.1014ZM67.6395 35.1417C67.924 35.3216 67.3039 34.4814 67.5126 34.5903C67.6464 34.6601 68.1562 35.2046 68.3914 35.2974C68.4604 35.3214 68.0343 34.6589 67.8574 34.5277C67.6074 34.3401 67.717 34.6719 67.4535 34.4572C66.5697 33.7363 65.8704 33.0019 65.0345 32.341C64.959 32.2816 65.4575 32.8447 64.8172 32.3323C64.7183 32.2535 64.2473 31.6327 63.4569 31.0529C61.3703 30.1753 60.5055 28.7876 58.1479 27.3091C58.199 27.4099 59.7585 28.7522 59.8509 28.8321C61.609 30.2637 64.8245 32.8011 66.6871 34.3405C67.1655 34.7337 67.0181 34.4465 67.2275 34.6125C67.3913 34.7431 67.0418 34.7631 67.6395 35.1417ZM101.816 243.209C101.521 243.364 101.08 244.247 100.727 244.774C100.976 244.659 101.454 243.709 101.816 243.209ZM47.5638 19.8958C47.838 20.0635 48.6358 20.6609 48.7413 20.6564C48.8785 20.6478 47.7022 19.8182 47.5638 19.8958ZM129.551 148.917C129.542 148.885 129.522 148.087 129.529 148.057C129.722 147.33 129.781 149.726 129.551 148.917ZM127.452 129.813C127.306 129.22 127.101 128.635 127.291 128.388C127.331 128.775 127.626 129.852 127.452 129.813ZM120.146 104.37C119.905 104.599 119.415 102.822 119.306 102.492C119.485 102.556 120.323 104.201 120.146 104.37ZM37.3306 13.9725C36.3935 13.4141 36.4318 13.7804 35.907 13.3222C35.822 13.2473 35.8374 12.5462 36.7516 13.3366C36.9155 13.4801 36.1059 13.1793 37.3306 13.9725ZM84.6867 50.2975C84.3574 50.2214 83.7921 49.5605 83.3907 49.1323C83.5831 49.1327 84.3867 50.0045 84.6867 50.2975ZM98.0444 248.649C97.6341 248.992 96.3977 250.995 96.8102 250.564C96.8709 250.502 97.8584 248.919 98.0444 248.649ZM127.839 177.56C127.798 176.546 127.403 178.578 127.481 179.255C127.522 178.96 127.843 177.628 127.839 177.56ZM122.174 110.388C122.151 110.346 121.825 109.338 121.819 109.29C121.76 108.391 122.682 111.245 122.174 110.388ZM128.096 136.132C127.87 135.797 127.642 133.27 127.728 132.684C128.094 133.175 128.397 136.576 128.096 136.132ZM41.1698 16.1541C40.5083 15.7598 39.9056 15.3534 39.3302 14.9508C39.5144 14.9377 41.1446 16.044 41.1698 16.1541ZM120.851 106.742C120.833 106.688 120.83 106.631 120.813 106.579C120.827 106.635 120.839 106.689 120.851 106.742ZM55.5224 25.7292C56.0185 26.1433 56.0441 25.8935 56.0158 25.8648C55.6634 25.5249 54.9598 25.262 55.5224 25.7292ZM101.214 243.7C100.968 243.812 100.491 244.768 100.123 245.268C100.321 245.174 100.963 244.123 101.214 243.7ZM94.5604 61.6827C94.8772 62.484 92.498 60.0809 92.1674 59.4421C92.2626 59.294 94.5158 61.5608 94.5604 61.6827ZM126.96 180.56C126.771 180.595 126.724 182.003 126.864 181.725C126.954 181.549 127.08 180.538 126.96 180.56ZM91.1555 58.0914C90.9053 57.8899 90.5661 57.2176 90.8233 57.3393C91.1543 57.4957 91.2218 58.1424 91.1555 58.0914ZM71.1633 38.3299C71.249 38.4369 72.7528 39.5212 72.3015 38.8914C71.9875 38.4543 71.7544 38.5815 71.6606 38.5005C71.5583 38.4058 69.5297 36.2596 71.1633 38.3299ZM105.583 77.0039C105.134 76.453 104.739 75.6934 104.323 75.0836C104.595 75.2645 105.559 76.6631 105.583 77.0039ZM127.815 175.102C127.733 175.259 126.929 179.908 127.588 177.294C127.632 177.14 128.12 174.61 127.815 175.102ZM37.3306 13.9725C37.4463 14.0415 37.5766 14.1247 37.7248 14.2264C37.5733 14.1319 37.4442 14.0464 37.3306 13.9725ZM47.7186 20.423C47.4501 20.3716 48.4771 21.082 48.8181 21.2425C48.9897 21.1996 47.7558 20.4285 47.7186 20.423ZM104.123 75.1471C103.817 74.8395 103.46 74.1536 103.155 73.7262C103.317 73.724 104.136 74.9192 104.123 75.1471ZM118.2 101.487C117.948 100.671 117.497 99.7276 117.335 99.7803C117.352 99.7536 117.362 99.7049 117.36 99.6311C117.359 99.5564 116.922 98.7566 116.813 98.374C116.21 96.051 120.576 106.705 117.546 100.742C117.765 100.989 117.982 101.238 118.2 101.487ZM128.127 139.528C127.983 140.03 128.373 141.347 128.415 140.989C128.447 140.738 128.276 139.022 128.127 139.528ZM124.665 121.28C124.667 121.428 125.125 122.678 125.237 122.687C125.169 121.916 124.667 120.598 124.665 121.28ZM128.26 143.252C128.256 143.558 128.609 143.916 128.62 143.879C128.713 143.558 128.395 142.725 128.26 143.252ZM38.9153 15.5817C39.2509 15.8551 40.5192 16.4429 40.8592 16.4806C40.8913 16.5333 41.0001 16.6429 41.212 16.8254C41.2113 16.8249 41.2106 16.8245 41.2099 16.824C41.5394 17.035 50.8849 23.1782 44.7682 18.8679C44.5763 18.7348 44.7704 19.018 43.9675 18.4787C43.9144 18.443 43.9504 18.3356 43.7865 18.2257C43.4094 17.969 41.3997 16.6407 40.9402 16.4647C40.9478 16.4461 40.9318 16.4143 40.8849 16.3654C40.4644 15.9281 38.6527 15.3688 38.9153 15.5817ZM123.967 118.756C123.98 119.028 124.253 119.824 124.412 119.872C124.373 119.449 123.937 118.125 123.967 118.756ZM127.273 175.182C127.093 175.7 127.077 177.078 127.243 176.683C127.35 176.44 127.484 174.581 127.273 175.182ZM126.024 126.932C125.537 123.876 125.857 126.214 125.556 125.797C125.713 126.174 125.87 126.552 126.024 126.932ZM27.0027 8.53075C27.4136 8.77587 26.7959 8.71654 26.3933 8.36526C26.2668 8.25484 26.7722 8.39432 27.0027 8.53075ZM7.46352 -0.390729C7.78055 -0.0977122 5.94784 -0.929635 6.72112 -0.732797C6.75625 -0.723163 7.43835 -0.407738 7.46352 -0.390729ZM21.1467 5.75777C21.5027 5.78568 21.7108 5.86781 22.515 6.29989C21.2775 5.73417 22.3533 6.39076 21.1467 5.75777ZM117.314 99.7992C117.321 99.7902 117.326 99.7831 117.335 99.7803C117.329 99.7894 117.322 99.7953 117.314 99.7992ZM128.541 146.177C128.364 146.574 128.439 147.647 128.625 147.313C128.642 147.281 128.702 146.322 128.541 146.177ZM40.8592 16.4806C40.8306 16.4339 40.8613 16.4337 40.9402 16.4647C40.933 16.4822 40.905 16.4856 40.8592 16.4806ZM127.875 140.345C128.034 140.366 127.907 138.715 127.879 138.652C127.502 137.747 127.797 139.666 127.875 140.345ZM125.129 185.796C125.125 185.882 125.587 185.416 125.522 185.065C125.471 184.794 125.144 185.478 125.129 185.796ZM18.3172 4.46271C17.861 4.24801 17.221 3.95118 17.1477 3.81235C17.4452 3.96462 18.3603 4.40318 18.3172 4.46271ZM8.14341 0.00656794C8.72444 0.136991 9.96597 0.646355 10.7567 0.999608C10.7103 1.12238 8.66093 0.179509 8.14341 0.00656794ZM37.7854 14.8231C37.8167 14.8496 38.8659 15.5435 38.7897 15.3475C38.6782 15.0588 37.518 14.584 37.7854 14.8231ZM125.835 183.373C125.831 182.788 125.206 184.021 125.357 184.669C125.436 185.002 125.837 183.472 125.835 183.373ZM128.448 149.554C128.589 150.318 128.711 148.397 128.494 148.144C128.496 148.499 128.399 149.282 128.448 149.554ZM124.666 123.534C124.643 126.059 125.399 124.511 125.208 124.106C125.181 124.048 124.666 123.472 124.666 123.534ZM94.1672 253.218C94.0097 253.513 94.8497 252.573 94.8635 252.379C94.8719 252.259 94.2541 253.052 94.1672 253.218ZM112.014 89.207C112.063 89.2966 112.113 89.3854 112.161 89.4736C112.118 89.4114 112.068 89.3252 112.014 89.207ZM127.78 156.602C128.599 154.869 127.971 155.056 127.976 154.907C127.984 154.584 128.199 153.828 128.155 153.221C128.255 153.915 128.35 154.611 128.439 155.311C128.52 154.752 128.727 149.958 128.572 149.87C128.381 149.736 128.488 151.23 128.471 151.275C128.449 151.34 127.934 151.594 127.917 151.734C127.905 151.959 127.931 155.953 127.78 156.602ZM125.844 128.49C125.83 128.093 126.017 127.94 125.931 127.772C125.901 127.715 125.7 127.748 125.606 127.552C125.686 127.864 125.765 128.177 125.844 128.49ZM128.431 159.644C128.181 160.119 128.336 157.971 128.36 157.903C128.53 157.536 128.642 159.253 128.431 159.644ZM127.784 141.187C127.78 141.267 127.862 142.946 127.994 142.92C128.063 142.465 127.867 140.229 127.784 141.187ZM125.539 127.299C125.444 126.721 125.409 125.596 125.135 125.788C125.136 125.788 125.136 125.789 125.136 125.79C125.273 126.292 125.407 126.795 125.539 127.299ZM125.646 181.348C125.018 182.32 125.656 181.917 125.968 181.015C125.827 180.704 125.748 181.189 125.646 181.348ZM124.661 184.637C124.533 184.911 123.942 187.937 124.262 187.524C124.382 187.376 124.571 185.603 124.6 185.528C124.649 185.411 124.776 186.01 124.927 185.078C124.832 185.116 124.708 184.541 124.661 184.637ZM125.207 182.166C124.68 183.146 125.229 183.485 125.387 182.703C125.448 182.398 125.282 182.026 125.207 182.166ZM126.023 177.883C125.903 178.257 125.647 179.278 125.723 180.005C125.907 179.072 126.085 178.119 126.252 177.179C126.153 177.055 126.129 177.554 126.023 177.885C126.023 177.885 126.023 177.884 126.023 177.883ZM2.00901 -1.65627C2.73456 -1.29472 0.982271 -1.94183 0.918542 -1.98336C0.724511 -2.12106 1.68326 -1.8185 2.00901 -1.65627ZM88.1256 256.848C87.9704 257.016 87.7943 257.077 87.5648 257.523C87.9145 257.153 88.2642 256.784 88.614 256.415C88.6672 255.987 88.2958 256.664 88.1256 256.848ZM86.4843 258.058C86.5196 257.996 86.0677 258.16 86.7319 257.502C87.1886 257.059 85.4147 259.933 84.9599 260.374C85.2961 259.78 86.1772 258.587 86.4843 258.058ZM82.2153 262.357C82.1777 262.378 82.8692 261.275 82.9625 261.158C83.461 260.543 82.4265 262.241 82.2153 262.357ZM84.5176 258.931C84.147 259.407 84.8401 258.266 85.0778 257.95C85.1431 257.947 84.5753 258.857 84.5176 258.931ZM7.84112 5.3997C8.31711 5.8787 9.02011 5.7485 8.1068 5.37328C8.06319 5.35545 7.8213 5.37829 7.84112 5.3997ZM82.6977 261.145C83.0718 260.664 82.3632 261.812 82.1166 262.133C82.0575 262.137 82.6418 261.218 82.6977 261.145ZM8.02606 6.04479C8.70944 6.57809 8.6663 5.99076 8.58049 5.92321C8.2259 5.64645 6.81887 5.12921 6.53207 5.03245C8.53645 5.99635 7.70514 5.79753 8.02606 6.04479ZM11.646 7.65434C12.3789 7.99028 10.6188 6.91026 10.2132 6.85696C10.5653 7.03807 11.4374 7.55774 11.646 7.65434ZM15.7348 10.1568C16.0937 10.3859 17.1691 11.0715 17.3979 11.1018C16.9854 10.877 15.9332 10.1655 15.7348 10.1568ZM16.4427 10.8772C16.9602 11.3236 17.2699 11.0919 16.5534 10.7948C16.5256 10.7833 16.4247 10.8588 16.4427 10.8772ZM19.6012 12.9201C19.8948 13.2736 20.4934 13.2154 19.9017 12.8434C19.7255 12.7339 19.5706 12.8816 19.6012 12.9201ZM8.72511 7.03165C9.24732 7.38148 10.0533 7.5741 8.89226 6.90985C9.31806 7.10485 9.74538 7.30132 10.1743 7.49932C8.68792 6.54259 8.66999 6.88056 8.23634 6.62832C7.63171 6.27927 7.78662 6.08885 7.94357 6.08566C7.3686 5.94542 5.26526 4.82806 3.95049 4.18911C5.06698 4.82283 6.76625 5.84261 7.8146 6.46012C8.11428 6.63615 8.44049 6.73743 8.69826 6.88698C9.1113 7.12763 8.69587 7.01167 8.72297 7.03047C8.72367 7.03086 8.72443 7.03128 8.72511 7.03165ZM23.7494 15.5123C24.7461 16.3598 24.2548 15.5881 23.6042 15.2581C23.5753 15.2459 23.7246 15.4912 23.7494 15.5123ZM81.11 262.167C82.1352 260.742 81.5974 261.901 83.3384 258.681C82.6661 260.07 83.3907 258.819 83.2873 259.109C83.2037 259.341 82.6891 260.078 83.0527 259.693C82.6 260.21 81.0054 262.763 80.9127 262.868C80.9134 262.867 80.9141 262.866 80.9148 262.865C80.8627 262.927 80.7807 262.623 81.11 262.167ZM15.319 10.943C15.4889 11.5261 15.9464 11.0306 16.5043 11.7695C17.7078 11.8993 13.8498 10.1798 13.611 9.5783C17.5126 11.8939 11.2094 7.72667 13.6609 9.84541C11.5186 8.35435 12.8917 9.48617 12.5102 9.35361C12.1197 9.21867 10.8393 8.38894 10.8427 8.556C10.8434 8.55639 10.8442 8.55685 10.8448 8.55723C11.6599 9.0092 12.4345 9.44575 13.2125 9.88882C12.6019 9.16434 14.1448 10.1664 14.5585 10.7251C14.8112 10.7977 15.0647 10.8703 15.319 10.943ZM11.0213 8.11527C11.1036 8.16716 12.8527 9.10721 12.7622 8.98416C12.5828 8.82967 10.0561 7.47308 11.0213 8.11527ZM3.31187 4.04587C3.94827 4.37189 4.91638 4.93798 5.31231 5.02827C4.66827 4.68873 3.70036 4.13144 3.31187 4.04587ZM34.4116 23.1101C35.215 23.5198 32.9866 21.8905 33.5525 22.4811C33.5806 22.5093 34.3723 23.089 34.4116 23.1101ZM17.1214 11.9481C17.8533 12.5429 17.6781 11.9513 17.036 11.6926C16.9989 11.6776 17.0877 11.9207 17.1214 11.9481ZM81.8421 260.942C81.8174 260.844 83.1992 258.724 83.4283 258.346C83.3633 258.602 81.8785 261.05 81.8421 260.942ZM2.07482 3.7393C3.20949 4.63746 5.07183 5.25661 5.26228 5.36273C5.44779 5.4701 5.09627 5.42952 5.13786 5.4555C5.24396 5.51698 7.15737 6.54517 7.25995 6.59308C7.3303 6.62295 7.06284 6.26196 7.48868 6.42584C6.69044 6.10017 3.08801 4.12405 2.88616 4.05287C2.73453 3.99193 3.75612 4.7241 2.077 3.74042C2.07628 3.74006 2.07553 3.73967 2.07482 3.7393ZM5.70312 5.64389C5.25619 5.31672 6.60667 6.03022 6.92262 6.23641C7.62079 6.69026 5.7587 5.68185 5.70312 5.64389ZM8.92662 7.4944C9.07318 7.59547 10.4738 8.40578 10.6378 8.39216C10.0213 7.90227 8.59169 7.25944 8.92662 7.4944ZM24.1979 16.7351C24.5577 16.9514 25.4794 17.6674 25.5782 17.6113C25.2383 17.4017 24.3013 16.682 24.1979 16.7351ZM85.7076 253.276C85.3115 253.835 86.0785 252.441 86.3308 252.058C86.3896 252.065 85.7426 253.228 85.7076 253.276ZM16.8359 12.7934C17.0704 12.9565 21.2864 15.5515 21.9045 15.9114C21.3606 15.4544 17.2131 12.8256 16.9654 12.7269C16.9038 12.7007 16.811 12.7728 16.8359 12.7934ZM7.46136 7.29497C7.01223 7.17291 6.813 6.90498 6.76328 6.8756C6.2779 6.584 5.25219 6.04717 5.52057 6.07411C6.36321 6.58359 8.3573 7.53677 7.46136 7.29497ZM24.154 17.5112C25.6169 18.4184 22.9416 16.4531 23.2248 16.8279C23.2434 16.8507 24.0029 17.4167 24.154 17.5112ZM16.3359 12.5299C15.9482 12.404 11.7501 9.75606 11.0306 9.35362C11.7619 9.56831 12.17 9.97038 13.0019 10.4563C13.2255 10.5866 13.2027 10.4816 13.2267 10.4958C13.6141 10.7228 13.283 10.6309 13.52 10.7745C13.6651 10.8567 16.8602 12.6699 16.3359 12.5299ZM7.19901 7.23805C6.92654 7.1548 4.21421 5.67745 4.07891 5.5929C3.30887 5.03034 7.01181 7.09412 7.19901 7.23805ZM16.6455 12.93C16.0707 12.8406 14.0197 11.3967 15.5289 12.1931C15.6732 12.2693 16.2152 12.7214 16.6455 12.93ZM23.8754 17.6198C23.9466 17.6742 25.3926 18.7145 25.4545 18.6578C25.2802 18.4945 23.1168 17.012 23.8754 17.6198ZM22.9639 17.341C23.0008 17.3634 22.7318 16.9961 23.4185 17.4786C23.4758 17.5194 23.493 17.742 24.4024 18.2789C24.5894 18.3893 24.9179 18.4693 24.9024 18.4498C24.1409 17.5923 21.1194 16.2224 22.9639 17.341ZM7.10091 7.30928C7.22143 7.44392 6.79512 7.39681 6.51678 7.14061C6.39738 7.03093 6.69414 7.08186 7.10091 7.30928ZM28.4543 20.8513C27.5363 20.3777 30.1649 22.2686 30.3203 22.3398C30.2849 22.1992 28.546 20.8959 28.4543 20.8513ZM85.7989 251.436C85.7985 251.437 85.7981 251.437 85.7978 251.438C86.2296 250.701 86.0512 251.215 86.0728 251.181C87.0604 249.659 86.65 249.972 86.7647 249.709C87.0095 249.142 87.1687 249.387 87.5799 248.4C86.8986 249.997 87.573 248.605 87.6854 248.594C88.0824 248.65 86.4621 250.481 86.1143 251.273C86.0659 251.382 86.5852 250.68 86.4668 250.963C86.0769 251.878 84.1261 254.269 85.7989 251.436ZM6.2666 7.01624C5.89957 6.91445 3.23689 5.33568 3.98545 5.66083C4.13283 5.72015 6.84304 7.17013 6.2666 7.01624ZM101.61 106.28C101.155 105.716 101.581 107.295 101.835 107.514C101.963 107.622 101.811 106.529 101.61 106.28ZM104.877 117.159C105.178 117.927 106.227 118.508 105.783 117.565C105.735 117.464 104.954 117.033 104.877 117.159ZM78.89 69.1903C79.2227 70.0597 79.5814 69.6995 79.1767 69.1911C79.0336 69.0117 78.8795 69.163 78.89 69.1903ZM97.0055 97.2782C97.0291 97.364 97.5126 98.2457 97.6057 98.157C97.5061 97.7897 96.8637 96.7168 97.0055 97.2782ZM78.6619 69.0147C79.0551 69.3703 78.7795 68.4265 78.1084 68.1512C78.333 68.3876 78.6219 68.9781 78.6619 69.0147ZM17.9415 14.5044C18.3724 14.6399 19.4124 15.3583 20.032 15.7414C20.0174 15.9214 18.3874 14.7564 17.9415 14.5044ZM104.024 113.744C104.484 114.409 104.064 112.776 103.863 113.015C103.858 113.04 104.006 113.718 104.024 113.744ZM59.7027 47.9017C60.2194 48.2077 59.0126 46.7585 59.2124 47.3039C59.2239 47.3289 59.6746 47.8847 59.7027 47.9017ZM53.8247 42.202C54.1256 42.5386 55.5354 43.8316 55.0778 43.2219C55.0071 43.1263 53.9306 42.1282 53.8247 42.202ZM86.704 249.612C86.473 249.744 87.1474 248.55 87.2734 248.369C87.3131 248.318 87.0114 249.435 86.704 249.612ZM82.3159 73.7888C82.6139 74.134 83.2532 75.1306 83.4918 75.2115C83.1438 74.7765 82.4595 73.4893 82.3159 73.7888ZM102.756 110.408C102.709 111.165 103.152 112.237 103.443 111.818C102.954 110.628 103.152 112.105 102.756 110.408ZM76.5885 66.9162C76.8003 67.2158 77.2596 67.1944 77.2473 67.1508C77.1259 66.7327 76.4702 66.5391 76.5885 66.9162ZM92.3988 89.1874C92.2654 89.2923 92.9121 90.2558 92.9282 90.0665C92.9351 90.0035 92.508 89.1017 92.3988 89.1874ZM30.9173 23.5048C31.3125 23.9191 29.8851 22.9939 29.5413 22.6039C29.433 22.3192 30.8668 23.4514 30.9173 23.5048ZM70.0798 59.0797C69.8795 59.1941 71.1879 60.4864 70.8475 59.8127C70.7624 59.6435 70.1478 59.0414 70.0798 59.0797ZM57.6323 46.4838C58.7061 47.1603 55.0198 43.4013 55.8167 44.5869C55.8758 44.6684 57.5489 46.4276 57.6323 46.4838ZM51.4782 40.5249C51.6204 40.6893 51.1141 41.1361 50.6218 40.3422C50.5565 40.2384 51.0726 40.4655 51.0278 40.3705C51.0089 40.319 49.6064 38.9422 49.5292 38.8971C49.4458 38.8467 49.398 39.0876 49.3098 39.0412C49.2111 38.988 48.4281 38.049 47.956 37.636C47.0671 36.8575 46.8638 36.9127 46.7906 36.8495C46.5772 36.6661 46.294 36.2604 45.8608 35.8903C43.7039 34.0373 40.1571 31.3021 38.5788 29.6262C40.0876 30.9975 41.6813 32.1039 43.2828 33.368C42.6166 33.2651 45.7472 35.0723 43.8925 34.0493C44.6951 34.5642 51.0318 39.966 51.4764 40.5232C51.477 40.5238 51.4775 40.5243 51.4782 40.5249ZM105.654 120.334C105.228 119.941 106.044 122.381 106.427 122.501C106.379 122.159 105.707 120.382 105.654 120.334ZM100.938 109.328C100.8 109.125 100.187 109.133 99.9694 107.86C99.9689 107.859 99.9685 107.858 99.968 107.857C99.9033 107.485 100.195 107.816 100.215 107.735C100.225 107.704 100.036 106.532 100.453 107.394C101.083 108.712 100.114 107.687 100.407 108.406C100.445 108.493 101.289 109.736 101.319 109.632C101.323 109.62 101.096 109.235 101.094 109.156C101.088 108.86 101.305 108.916 101.298 108.876C101.273 108.746 100.09 106.717 100.196 106.302C100.24 106.16 101.903 109.621 101.906 109.784C101.915 109.882 101.439 110.031 101.43 110.14C101.427 110.195 102.165 111.559 102.192 111.764C102.201 111.823 102.203 111.869 102.204 111.903C102.265 111.631 102.748 112.93 102.569 112.952C102.497 112.953 102.197 112.049 102.195 112.013C102.194 111.998 102.196 111.983 102.196 111.97C102.1 112.221 100.914 109.2 100.912 109.958C100.418 109.146 101.342 109.926 100.938 109.328ZM98.8932 105.303C98.98 105.37 99.0668 105.437 99.1535 105.504C98.3781 104.061 97.8093 102.223 96.9771 100.512C96.7662 100.079 96.724 100.719 96.5251 100.113C96.3658 99.6278 96.3788 98.9921 96.56 99.209C96.6052 99.2618 96.8895 100.274 97.1305 100.73C97.8427 102.078 97.92 101.614 97.9657 101.691C98.0156 101.777 98.2511 102.73 98.4773 103.203C99.0451 104.39 99.4466 104.865 99.958 106.6C99.3813 105.723 99.2496 106.401 98.8932 105.303ZM64.325 53.8106C64.1772 53.8698 63.5051 52.971 63.2104 52.6964C63.3573 52.635 64.0331 53.5326 64.325 53.8106ZM105.241 202.341C105.366 202.734 106.075 200.324 105.724 200.907C105.648 201.035 105.327 202.036 105.241 202.341ZM108.052 191.293C108.057 190.949 107.617 192.229 107.793 192.273C107.85 192.286 108.052 191.337 108.052 191.293ZM89.1707 86.3016C89.1308 86.252 88.6964 85.4338 88.6922 85.4018C88.617 84.7209 90.0721 87.4019 89.1707 86.3016ZM109.959 177.714C109.988 178.899 110.461 175.401 110.13 176.444C110.115 176.495 109.956 177.67 109.959 177.714ZM110.409 172.82C110.396 173.098 110.2 174.327 110.275 174.354C110.398 174.395 110.614 172.985 110.409 172.82ZM75.6842 67.364C75.546 67.6598 74.6808 66.2284 74.2825 65.803C74.4176 65.5051 75.2987 66.9381 75.6842 67.364ZM81.82 75.8187C77.5276 70.3571 78.9563 71.1882 82.1785 76.0663C82.0279 76.1902 82.0872 76.166 81.82 75.8187ZM76.4862 68.6665C76.7883 68.7439 77.2353 69.404 77.5516 69.8373C77.391 69.8448 76.7521 68.9475 76.4862 68.6665ZM104.098 205.138C104.036 204.647 104.793 202.859 104.779 203.217C104.778 203.299 104.159 205.329 104.098 205.138ZM88.6426 85.9525C88.4751 86.2517 87.4809 84.4277 87.4483 84.258C87.3309 83.5674 88.5027 85.8438 88.6426 85.9525ZM69.1026 59.9124C68.703 59.7841 68.0792 58.9108 67.6252 58.4011C67.9639 58.5034 68.7291 59.4797 69.1026 59.9124ZM72.1685 63.7438C72.1352 63.7165 71.54 62.9797 71.5196 62.9409C71.1774 62.2036 72.8648 64.2883 72.1685 63.7438ZM84.3255 251.896C84.338 251.866 84.687 251.223 84.7022 251.203C85.1002 250.684 84.0487 252.613 84.3255 251.896Z" fill="#FF4B53"/>
<path d="M81.8646 267.509C81.329 267.167 80.9121 266.635 80.7388 266.188C80.683 266.049 81.0297 266.026 81.0087 265.925C80.9705 265.726 80.6843 265.614 80.6782 265.408C80.679 265.339 81.2223 265.265 81.2146 265.195C81.1761 264.811 80.8155 264.542 80.6807 264.181C80.0485 262.391 79.3497 260.655 78.7771 258.824C78.5837 258.221 78.9461 257.314 78.3697 256.802C78.301 256.743 77.633 256.986 77.5702 256.989C76.6008 257.036 78.0246 256.698 78.1493 256.506C78.6394 255.748 78.4699 255.115 77.9759 254.668C77.7639 254.478 76.4144 255.126 77.1296 254.663C77.1781 254.631 77.9734 254.462 78.0313 254.376C78.1614 254.182 77.9194 253.956 77.9392 253.829C77.9819 253.582 77.9613 253.55 77.8953 253.348C77.8114 253.07 78.0883 252.63 77.8032 252.389C77.7396 252.339 76.9505 252.661 76.7739 252.602C76.5973 252.544 76.569 252.26 76.7315 252.114C76.8939 251.967 77.5569 251.815 77.7001 251.756C78.9125 251.258 77.0652 251.46 77.0063 251.434C76.0155 250.931 76.8116 250.018 76.5964 249.336C76.4306 248.824 75.9336 248.371 75.829 247.867C75.8282 247.863 75.8273 247.859 75.8265 247.855C75.712 247.247 76.0251 246.613 75.7798 246.062C75.7549 246.004 74.78 246.366 74.7476 246.295C74.4043 245.544 74.2893 244.731 74.7359 243.752C74.7815 243.653 75.6824 243.499 75.7801 243.385C76.3596 242.695 77.8559 241.434 73.9881 242.256C74.0437 241.887 74.0851 241.447 74.7643 240.933C75.2012 240.602 76.1984 240.507 75.7292 240.395C75.6245 240.369 74.8162 240.679 74.7219 240.622C74.3261 240.382 74.4933 239.944 73.9754 239.744C73.8681 239.704 73.1337 239.938 72.9953 239.959C71.8736 240.116 73.5827 239.332 73.6956 239.237C74.5382 238.52 74.0688 238.313 73.9792 237.9C73.9587 237.804 73.0013 238.205 72.9464 238.123C72.6749 237.694 72.6268 237.182 72.9364 236.593C73.0076 236.462 73.8711 236.311 73.9479 236.235C74.2754 235.906 72.6819 236.321 72.9664 236.014C73.0243 235.95 73.7466 235.765 73.823 235.734C75.0214 235.249 73.244 235.652 73.1969 235.631C72.5595 235.38 74.3069 234.588 73.9394 234.272C73.8939 234.235 73.0227 234.604 72.9499 234.483C72.4602 233.678 72.4573 232.676 72.9288 231.6C73.0008 231.433 73.6945 231.334 73.7744 231.301C75.0201 230.787 73.274 231.201 73.1974 231.176C72.6369 230.965 73.9821 230.22 71.8798 230.581C72.1811 228.903 70.6726 227.762 72.0534 225.781C72.0688 225.756 72.8959 225.55 72.9229 225.502C73.2562 224.923 72.0095 225.38 70.3847 225.537C69.9778 225.576 71.7821 224.804 71.9122 224.744C72.395 224.524 73.6231 224.246 73.7137 224.193C74.419 223.769 70.4409 224.969 70.3693 224.696C70.3736 224.685 71.1153 224.507 71.182 224.462C71.3913 224.324 71.0816 224.339 71.3145 224.196C71.8542 223.866 73.7622 223.246 72.5736 223.332C72.42 223.344 70.1885 224.047 70.2311 223.772C70.2496 223.662 70.0989 223.243 70.2116 223.08C70.324 222.917 71.0629 222.79 71.0918 222.772C71.9512 222.171 72.3772 222.179 73.7303 221.608C75.0756 221.039 71.7661 222.056 71.3775 222.098C70.9901 222.14 71.7029 221.675 71.9558 221.538C72.2092 221.401 72.6819 221.341 72.8197 221.245C73.7165 220.611 71.1366 221.575 70.5818 221.615C69.2727 221.709 71.659 220.786 71.8259 220.473C71.8716 220.389 71.3334 220.604 71.2653 220.561C71.0042 220.385 71.7196 220.024 70.9551 219.962C70.8296 219.951 69.3253 220.16 70.3496 219.71C70.4971 219.646 71.1116 219.526 71.218 219.388C71.3781 219.181 71.4326 218.876 71.189 218.774C71.0091 218.7 70.0665 219.122 70.3306 218.884C70.4483 218.778 71.0548 218.733 71.2275 218.549C71.4 218.365 71.2856 218.058 71.2323 217.944C71.1784 217.831 70.4599 218.112 70.4075 218.117C70.1067 218.142 69.6908 218.015 69.6865 217.995C69.3311 216.993 70.289 215.693 69.6155 214.814C69.5642 214.745 68.8311 215.015 68.8155 215.007C68.4323 214.83 70.4736 214.461 71.0833 214.08C69.5789 214.55 69.822 214.359 69.6049 214.219C69.4992 214.152 68.9299 214.372 68.8679 214.381C67.9479 214.505 69.0657 214.076 69.2917 213.984C70.1245 213.644 69.0857 213.843 69.641 213.615C70.1908 213.388 71.0722 213.281 71.0083 213.105C70.4595 213.211 69.0989 213.754 68.8357 213.682C67.8467 213.412 68.6827 212.123 68.6758 211.675C68.6742 211.226 68.5427 211.12 68.663 210.823C68.879 210.287 67.9283 210.739 67.4061 210.598C66.8857 210.456 69.3452 209.879 69.8562 209.687C70.3659 209.497 69.8173 209.612 70.0893 209.48C70.3607 209.35 70.746 209.348 70.8188 209.206C70.8901 209.064 69.8755 209.029 69.3258 209.147C68.1594 209.398 66.9971 209.887 67.3419 209.466C67.3623 209.441 68.0059 209.313 68.0519 209.229C68.3952 208.567 68.2756 208.02 68.5469 207.38C68.5849 207.292 69.2838 207.156 69.3133 207.103C69.619 206.546 68.5189 207.035 67.1918 207.168C68.8882 206.729 69.8788 206.297 69.7851 205.97C69.7303 205.773 69.0134 206.02 68.4653 206.043C68.3007 206.049 68.7569 205.765 68.4097 205.839C67.2763 206.081 66.0695 206.576 66.4777 206.091C66.4972 206.07 67.1142 205.94 67.1372 205.878C67.2871 205.476 66.1275 205.773 65.9029 205.451C65.7277 205.199 66.2921 204.495 66.3179 204.142C68.1058 203.626 67.6049 203.446 66.3544 203.68C66.3499 203.457 66.2235 203.252 66.3373 203.002C66.3758 202.916 66.8928 202.814 66.9452 202.789C67.7628 202.405 66.5696 202.657 66.513 202.625C65.9449 202.267 66.7036 201.618 65.7414 201.399C65.7065 201.391 64.5326 201.706 65.3539 201.332C65.41 201.307 65.981 201.305 65.9643 201.075C65.9501 200.843 66.4514 200.253 65.8406 200.105C65.6924 200.069 64.728 200.151 65.4061 199.792C65.4979 199.744 65.8269 199.671 65.9988 199.59C66.5448 199.33 65.397 199.611 66.3289 199.221C67.2613 198.831 67.8983 198.401 67.149 198.29C67.1266 198.286 66.2235 198.473 66.2107 198.373C66.1901 198.213 66.3087 197.944 66.2561 197.786C66.2308 197.711 65.7077 197.917 65.6941 197.906C65.2527 197.479 65.6289 196.973 65.6683 196.366C65.6747 196.255 64.8971 196.168 65.3916 195.812C65.9276 195.423 68.4842 194.913 67.717 194.604C67.4007 194.481 64.2501 195.131 65.732 194.31C65.1392 193.733 65.72 192.869 64.9772 192.334C64.9439 192.31 64.1227 192.444 64.1142 192.366C64.1021 192.252 64.4523 192.085 64.4536 192C64.4678 191.642 64.0738 191.434 64.0333 191.105C64.0166 190.981 64.393 190.916 64.3706 190.768C64.347 190.621 63.8468 190.665 64.0191 190.405C64.1514 190.209 65.0573 189.786 65.0998 189.564C64.168 189.829 64.1461 189.691 63.8348 189.527C63.7748 189.495 63.4705 189.637 63.4258 189.627C63.2383 189.587 63.4784 189.429 63.2785 189.398C63.2305 189.39 62.9215 189.479 62.8652 189.478C62.3772 189.469 63.0087 189.034 63.1144 188.96C63.5228 188.675 63.1097 188.719 63.2534 188.551C63.3949 188.383 63.6645 188.493 63.7299 188.327C63.863 187.982 63.7006 187.637 63.6256 187.349C63.5936 187.234 63.2372 187.423 63.2237 187.409C63.0608 187.201 63.3832 186.848 62.609 186.933C64.4619 186.213 62.3837 186.844 62.6705 186.394C62.6939 186.359 63.5603 186.068 63.7239 186.131C63.8883 186.194 63.661 186.428 63.9131 186.508C63.9706 186.527 64.8873 186.467 64.9509 186.477C65.4367 186.557 64.0741 186.988 64.0012 187.021C63.2231 187.382 64.2316 187.341 64.3218 187.382C64.7198 187.572 64.6039 187.867 64.9069 188.034C65.1039 188.144 66.0676 187.879 66.0873 188.005C66.1585 188.422 64.8227 188.966 66.1685 188.984C66.4571 188.988 67.5242 188.588 66.7783 189.123C66.7332 189.156 66.0155 189.602 66.5721 189.575C66.6426 189.571 66.9693 189.475 67.0053 189.487C67.2404 189.569 67.0159 189.736 67.2035 189.845C67.3914 189.954 67.6591 190.074 67.6164 190.274C67.5919 190.394 67.0107 190.71 66.873 190.804C66.4751 191.073 67.2748 191.003 66.7574 191.249C66.2333 191.498 65.3352 191.574 65.0483 191.909C65.9562 191.653 66.893 191.4 67.8105 191.146C67.9861 191.644 67.8823 192.214 68.1222 192.695C68.1532 192.754 68.6409 192.541 68.6884 192.601C68.8885 192.851 68.6177 193.2 68.8853 193.442C69.0945 193.629 69.7635 193.705 70.0109 193.892C68.9241 194.368 69.4533 194.598 69.4517 194.878C69.4508 194.976 69.1341 195.062 69.0562 195.154C68.7684 195.501 69.7705 195.085 69.9623 195.101C70.7878 195.168 68.4107 195.89 68.5877 196.203C68.5947 196.22 69.9691 196.054 70.0638 196.058C70.6676 196.088 69.6247 196.221 69.5748 196.365C69.4836 196.627 69.2238 196.867 69.7078 197.002C69.8494 197.042 70.751 196.971 70.1641 197.3C70.087 197.343 69.6408 197.462 69.6206 197.485C69.2901 197.882 70.6894 197.48 71.231 197.493C71.774 197.506 70.899 198.027 70.6335 198.159C69.9514 198.5 70.283 198.153 70.2084 198.167C69.3259 198.336 69.5379 198.467 69.5146 198.622C68.1241 199.05 68.2695 199.214 69.4958 198.78C69.6294 198.733 69.4605 198.667 69.5146 198.622C70.928 198.338 71.1992 198.485 69.9856 199.091C69.4156 199.376 68.6677 199.484 69.0404 199.731C69.2096 199.843 70.1752 199.498 70.4936 199.548C71.2243 199.66 70.4416 200.314 70.7003 200.574C70.7958 200.668 71.3092 200.399 71.3944 200.458C71.6239 200.612 71.2731 200.91 71.5659 201.047C71.5933 201.059 72.1638 200.842 72.1964 200.902C72.456 201.35 72.2377 201.871 72.4187 202.365C72.5062 202.604 73.0119 202.929 73.0418 203.194C73.0993 203.652 72.3871 204.445 72.7455 204.746C72.9786 204.942 73.595 204.704 74.0694 204.678C74.9928 204.627 73.6175 205.416 73.3962 205.533C73.3887 205.537 73.1597 205.376 72.8708 205.582C72.2061 205.848 73.3921 205.532 73.3962 205.533C73.256 205.609 73.2627 206.061 73.4175 206.106C73.502 206.131 74.109 205.926 74.1417 205.942C74.9064 206.326 75.2918 206.822 75.2132 207.462C75.2042 207.476 74.4893 207.669 74.4768 207.698C74.2821 208.112 75.231 208.063 75.8588 208.174C76.4855 208.285 76.3994 208.543 75.2129 209.065C75.4465 209.219 75.0025 209.667 74.7248 209.932C74.4469 210.197 75.886 209.801 75.9201 209.807C77.0024 209.994 76.2846 210.495 76.3314 211.004C76.352 211.246 76.732 211.627 76.9861 211.822C77.1895 211.975 76.8866 212.191 77.1757 212.302C77.2145 212.318 77.866 212.1 77.8943 212.1C78.7627 212.064 77.1082 212.443 76.8346 212.569C75.8389 213.024 75.307 213.28 75.8948 213.388C76.0282 213.414 78.441 212.895 78.6219 212.96C78.8509 213.046 77.9853 213.242 78.2457 213.326C78.2672 213.333 78.7885 213.178 78.8004 213.273C78.8627 213.714 78.7294 214.253 78.9468 214.666C78.9746 214.723 79.7881 214.401 79.8429 214.479C80.0992 214.846 80.2411 215.288 79.9904 215.792C79.926 215.917 79.3039 216.032 79.1339 216.105C78.1041 216.548 79.7375 216.27 79.7797 216.29C80.8097 216.776 79.5803 217.739 80.5363 218.262C80.5899 218.29 82.429 218.088 81.0014 218.656C80.9071 218.694 79.4401 219.272 80.5208 219.087C80.5886 219.075 81.3385 218.763 81.3137 218.932C81.2883 219.101 81.9018 219.181 81.1128 219.634C80.8652 219.776 79.392 220.374 80.6784 220.207C80.7659 220.195 83.6379 219.678 81.77 220.34C81.4623 220.449 79.4353 221.022 80.5526 220.945C80.7694 220.93 81.1922 220.719 81.5158 220.751C82.0152 220.797 81.5554 221.187 82.5411 221.136C82.7148 221.127 84.1592 220.88 83.1562 221.315C82.9989 221.383 82.3035 221.544 82.2519 221.634C82.0027 222.062 82.583 222.263 82.2258 222.728C82.1003 222.892 80.9679 223.158 80.7117 223.366C80.4558 223.574 80.2511 223.902 80.8047 223.879C81.3592 223.856 83.0904 223.197 83.3014 223.344C84.2217 223.981 83.4642 225.1 83.594 225.967C83.6136 226.096 84.2267 225.805 84.3027 225.98C84.5837 226.627 85.6051 227.588 84.4033 228.572C83.4382 229.362 82.3897 229.03 82.0501 229.517C81.8873 229.752 84.0934 229.308 84.1754 229.33C84.9982 229.53 84.1395 230.087 84.5527 230.363C84.6385 230.42 85.4885 230.091 85.5522 230.142C85.7776 230.314 85.4636 230.656 85.6047 230.843C85.6701 230.926 86.3347 230.712 86.3119 230.813C86.2651 231.052 86.0441 231.315 85.4804 231.699C85.4289 231.734 84.5524 231.856 84.571 232.017C84.6039 232.277 84.0795 232.764 84.8152 232.859C85.0361 232.886 86.5802 232.438 85.5737 232.93C85.3635 233.033 83.4936 233.527 85.1639 233.269C85.4408 233.226 87.7213 232.945 86.3824 233.527C86.03 233.68 84.5461 234.242 84.8174 234.273C84.86 234.276 85.6744 233.977 85.7826 234.037C86.1497 234.253 86.1605 234.588 86.5193 234.814C86.6169 234.874 87.4417 234.501 87.5598 234.598C87.886 234.866 87.8 235.344 87.6325 235.748C87.5691 235.898 86.8246 236.025 86.7493 236.057C85.5226 236.569 87.2646 236.149 87.3797 236.167C88.0713 236.28 87.3343 236.736 87.632 236.941C87.712 236.998 88.5157 236.705 88.5934 236.699C89.3563 236.641 87.8474 236.959 87.7153 237.103C87.3403 237.507 87.5 237.788 87.69 238.03C87.761 238.119 88.6789 237.727 88.7317 237.81C89.0627 238.294 89.1439 238.874 88.7767 239.548C88.7058 239.675 87.9509 239.829 87.7891 239.899C86.6559 240.384 88.323 240.12 88.4905 240.123C89.2543 240.135 88.6286 240.409 88.808 240.564C89.6966 241.318 89.6087 242.595 89.5999 243.555C89.5994 243.651 89.5964 243.745 89.5913 243.839C89.5279 244.973 89.1583 245.99 89.5521 246.973C89.5779 247.041 90.5321 246.686 90.5664 246.741C90.9616 247.466 90.7248 248.364 91.112 249.094C91.1416 249.154 92.0216 248.797 92.0978 248.886C92.2602 249.066 92.2407 249.36 91.9824 249.666C91.8586 249.814 91.087 249.889 90.979 250.034C90.7267 250.371 90.6984 250.662 90.8647 250.883C90.9367 250.977 91.8064 250.549 91.829 250.692C92.0051 251.659 92.1557 252.616 91.1175 253.949C91.0454 254.041 89.3923 254.586 89.7208 254.64C90.1789 254.518 90.7165 254.36 91.2052 254.221C91.4848 255.623 90.8911 257.264 90.7358 258.797C90.7281 258.862 91.46 258.539 91.4455 258.665C91.3691 259.39 91.4325 260.053 90.7068 260.984C90.6364 261.076 89.5353 261.362 89.6911 261.527C89.7198 261.555 89.8435 261.836 90.0627 261.853C90.0955 261.855 90.5956 261.651 90.5956 261.753C90.5873 262.348 90.364 263.034 90.0197 263.726C89.9641 263.838 89.5358 263.862 89.4947 263.942C89.2255 264.503 89.4696 264.956 89.0765 265.532C88.8242 265.915 88.2055 265.982 87.6117 266.319C87.529 266.367 87.5358 266.556 87.1995 266.664C86.3565 266.936 85.3849 267.128 84.4865 267.429C84.3381 267.479 84.5169 267.58 84.3517 267.629C84.3517 267.629 84.3516 267.629 84.3516 267.629C84.3028 267.643 84.2243 267.653 84.0964 267.656C84.0593 267.656 83.7849 267.551 83.5885 267.562C83.4526 267.57 83.1412 267.719 82.9467 267.711C82.7498 267.704 82.9984 267.56 82.7419 267.527C82.4798 267.496 82.0955 267.656 81.8646 267.509ZM73.4721 211.125C72.8304 211.482 75.3814 210.761 74.7133 210.773C74.6779 210.774 73.5034 211.107 73.4721 211.125ZM66.6205 192.58C65.9518 192.998 67.0919 192.816 67.6119 192.508C68.1258 192.201 66.8204 192.454 66.6205 192.58ZM65.3746 190.643C64.9106 191.038 67.1416 190.426 66.596 190.307C66.565 190.3 65.4011 190.62 65.3746 190.643ZM87.3436 265.638C87.3255 265.645 87.3262 265.782 87.3444 265.78C87.7798 265.726 87.7938 265.447 87.3436 265.638ZM64.1688 188.711C63.9181 188.865 64.3024 188.986 64.616 188.793C64.8659 188.639 64.4777 188.519 64.1688 188.711ZM73.1889 220.067C73.148 220.082 73.1373 220.184 73.3725 220.113C74.13 219.884 73.8773 219.821 73.1889 220.067ZM63.0187 185.164C63.133 185.704 61.7474 186.458 61.7719 185.826C61.7738 185.712 62.2872 185.919 62.382 185.747C62.5455 185.435 61.6192 185.532 62.0253 185.144C62.0957 185.075 63.0125 185.133 63.0209 185.164C63.0202 185.164 63.0194 185.164 63.0187 185.164ZM70.4509 212.107C70.4182 212.12 70.423 212.255 70.4573 212.248C71.2859 212.079 71.2737 211.808 70.4509 212.107ZM72.9465 225.884C72.866 225.915 72.8707 226.23 72.9496 226.217C74.5171 225.924 74.5049 225.288 72.9465 225.884ZM66.3641 204.123C65.6257 204.19 65.5075 204.047 66.3536 203.681C66.3428 203.832 66.3717 203.972 66.3641 204.123Z" fill="#FF4B53"/>
<path d="M147.124 221.386C147.186 221.304 147.436 221.476 147.544 221.44C147.997 221.293 148.242 221.375 148.673 221.279C149.31 221.134 150.835 220.055 151.663 221.519C151.663 221.519 151.663 221.519 151.663 221.519C151.663 221.519 151.663 221.519 151.663 221.519C151.663 221.519 151.663 221.519 151.663 221.519C151.671 221.534 151.679 221.548 151.687 221.563C151.84 221.846 151.873 222.227 152.033 222.557C152.192 222.887 153.368 224.931 153.244 225.168C153.056 225.497 152.09 225.375 151.954 225.488C151.863 225.567 151.848 225.837 151.738 225.953C151.387 226.325 151.086 226.314 151.019 227.091C150.709 226.901 150.398 226.709 150.085 226.513C149.965 226.768 149.451 226.569 149.343 226.661C149.255 226.738 149.328 227.005 149.232 227.078C149.126 227.163 148.808 227.018 148.621 227.183C148.314 227.452 148.602 228.107 148.444 228.314C148.28 228.53 147.76 228.395 147.616 228.786C147.621 228.877 147.627 228.968 147.633 229.059C147.746 229.201 147.859 229.343 147.971 229.484C147.879 229.645 147.638 229.359 147.511 229.433C147.361 229.519 147.462 229.876 147.363 229.938C147.283 229.989 147.033 229.811 146.938 229.893C146.799 230.012 147.036 230.353 146.993 230.474C146.975 230.521 146.492 231.118 146.46 231.144C146.212 231.329 145.904 230.838 145.673 230.927C145.034 231.174 144.684 231.97 144.251 232.48C144.057 232.707 143.796 232.839 143.514 232.908C143.116 231.309 141.688 230.762 143.207 232.709C142.773 232.574 142.917 233.276 142.615 233.34C142.419 233.381 142.137 233.151 141.913 233.307C141.514 233.582 141.57 234.755 140.553 233.239C140.234 233.826 139.485 233.5 140.123 235.043C140.051 235.213 139.252 234.56 139.046 234.53C138.854 234.505 137.623 234.745 137.444 234.824C137.266 234.905 136.963 235.061 136.898 235.279C136.814 235.548 137.579 237.195 136.233 235.559C135.955 235.933 135.797 235.963 135.338 235.956C135.255 235.955 135.091 235.682 135.055 235.704C134.982 235.749 134.972 236.031 134.855 236.138C134.663 236.313 134.207 235.8 134.739 236.684C134.683 236.924 134.627 237.165 134.571 237.407C134.423 237.264 134.274 237.12 134.125 236.976C134.158 237.214 134.19 237.453 134.223 237.693C133.566 236.318 133.472 237.43 134.076 238.083C133.648 237.984 133.218 237.882 132.785 237.776C131.961 236.225 132.078 237.971 132.608 238.779C132.576 238.798 132.544 238.817 132.512 238.836C132.006 238.6 131.944 239.097 131.452 239.03C130.959 238.962 130.904 238.789 130.392 238.128C130.336 238.218 130.28 238.308 130.224 238.398C130.938 240.655 129.049 237.138 129.206 239.115C128.257 237.98 128.066 238.981 127.916 239.604C127.898 239.676 128.04 239.928 128.026 240.041C127.991 240.315 127.447 240.211 127.922 241.022C127.664 240.863 127.405 240.703 127.146 240.541C127.129 240.753 127.112 240.966 127.095 241.18C127.242 241.438 127.388 241.696 127.535 241.954C126.833 241.202 126.703 241.74 126.425 241.628C126.369 241.604 126.159 241.248 126.005 241.21C125.824 241.164 125.67 241.402 125.468 241.373C125.642 241.808 125.817 242.243 125.992 242.68C125.873 243.054 125.184 242.04 124.992 242.044C124.958 242.046 124.53 242.414 124.517 242.453C124.412 242.764 124.993 243.65 124.283 243.832C124.156 243.864 123.888 243.596 123.784 243.644C123.6 243.726 123.503 244.787 123.851 245.499C123.162 244.777 122.81 245.48 122.507 245.334C122.415 245.288 122.091 244.743 121.873 244.72C121.696 244.7 121.632 245.343 121.435 245.367C121.224 245.39 120.899 244.956 120.806 244.969C120.718 244.981 120.869 245.402 120.773 245.46C120.469 245.634 119.849 245.183 119.607 245.317C119.254 245.507 119.602 246.843 119.611 247.54C119.499 247.51 119.29 247.305 119.215 247.35C118.284 247.896 117.134 248.336 116.072 248.655C115.582 248.811 113.581 247.808 115.429 250.402C115.558 250.985 113.855 250.551 113.639 250.659C113.425 250.772 113.55 251.382 113.395 251.493C112.926 251.827 112.376 251.673 112.043 252.501C111.958 252.717 112.144 253.438 112.051 253.49C111.938 253.551 111.484 253.029 111.323 253.081C110.941 253.211 110.431 253.812 110.052 253.914C109.982 253.932 109.66 253.411 109.482 253.297C108.785 252.851 108.448 253.136 109.486 254.816C108.517 254.109 108.635 255.251 108.282 255.56C107.533 256.21 105.81 256.758 105.529 257.982C105.353 258.755 105.828 259.567 104.774 259.3C104.54 259.241 104.276 259.125 103.992 259.054C103.329 258.889 102.074 257.593 102.806 259.656C102.072 259.476 101.901 260.065 100.647 258.677C100.824 259.089 101.002 259.501 101.18 259.913C101.129 259.96 101.077 260.006 101.026 260.053C100.8 259.695 100.573 259.337 100.347 258.979C99.8797 259.136 100.227 260.998 99.8791 261.215C99.295 261.577 97.4695 261.94 96.625 261.769C96.1769 261.679 96.6295 262.517 95.5 260.921C95.5013 261.08 95.5027 261.24 95.5042 261.4C95.6743 261.799 95.8447 262.199 96.0153 262.599C95.6508 262.855 94.8768 262.555 94.5228 262.787C93.8768 263.208 93.5014 264.893 92.4562 264.615C92.1934 264.543 91.5358 263.872 91.3798 263.982C91.1523 264.141 91.8501 265.512 91.5698 265.728C91.0871 266.102 89.2484 265.136 88.8303 265.556C88.7062 265.682 88.9267 266.233 88.8586 266.35C88.576 266.848 88.211 267.022 88.2643 268.073C87.089 267.021 86.153 265.276 85.0379 263.622C84.1965 262.375 82.1575 259.507 81.4592 258.377C80.9692 257.584 80.5019 256.481 79.9531 255.614C80.0962 254.636 80.7694 255.31 81.9092 256.327C82.6925 255.866 83.4763 255.407 84.2608 254.949C84.6006 255.382 84.9399 255.815 85.2786 256.246C85.2792 256.247 85.2798 256.248 85.2803 256.249C85.8954 256.628 85.3446 255.353 85.3585 254.995C85.4973 251.581 89.8354 252.051 91.7471 251.404C92.1605 251.267 93.0737 250.058 93.7312 250.625C93.902 250.773 94.2958 251.427 94.3837 251.418C94.8012 250.691 95.2229 249.971 95.649 249.258C97.5421 249.592 98.4369 248.058 99.6917 247.24C103.074 245.003 106.415 242.776 110.063 241.145C110.767 240.827 111.414 239.989 112.237 239.917C112.581 239.886 113.183 240.685 113.191 239.861C113.325 240.089 113.46 240.318 113.594 240.546C113.757 240.104 113.669 239.48 114.002 239.248C114.282 239.053 115.071 238.62 115.389 238.572C115.553 238.545 115.737 238.989 115.866 238.922C116.084 238.802 116.236 237.99 116.544 237.839C116.824 237.702 117.56 237.939 117.735 237.763C118.368 237.133 118.828 236.04 119.757 235.819C120.014 235.76 120.594 236.123 120.657 236.073C120.779 235.974 120.543 235.462 120.601 235.354C120.899 234.805 121.968 235.021 122.446 234.812C124.004 234.135 125.498 233.142 127.058 232.482C128.042 232.063 129.588 231.209 130.649 231.091C130.878 231.066 131.09 231.556 131.248 231.475C131.424 231.385 131.343 231.025 131.411 230.959C131.881 230.494 132.972 229.566 133.685 229.605C133.821 229.612 134.091 229.921 134.152 229.889C134.183 229.873 134.119 229.602 134.204 229.529C134.946 228.885 135.653 228.71 136.541 228.363C138.237 227.692 139.886 226.356 141.706 225.719C142.103 225.58 142.689 226.041 142.737 226.007C142.844 225.937 142.693 225.505 142.869 225.292C143.46 224.59 144.728 224.482 145.352 223.924C145.66 223.649 145.895 222.936 146.196 222.662C146.437 222.443 147.214 222.294 147.229 222.035C147.238 221.878 147.057 221.477 147.124 221.386ZM141.467 233.108C141.097 232.339 140.942 233.271 141.356 233.551C141.449 233.613 141.563 233.307 141.467 233.108ZM116.937 246.256C117.115 246.559 117.292 246.861 117.469 247.164C117.464 246.996 117.458 246.827 117.453 246.66C117.312 246.5 117.171 246.339 117.03 246.178C116.999 246.204 116.968 246.23 116.937 246.256Z" fill="#FF4B53"/>
</g>
<defs>
<clipPath id="clip0_1314_186">
<rect width="152.5" height="267" fill="white"/>
</clipPath>
</defs>
</svg>
